<?xml version="1.0" encoding="UTF-8"?>
<svg id="_레이어_1" data-name="레이어 1" xmlns="http://www.w3.org/2000/svg" viewBox="0 0 122.54 32.21">
  <defs>
    <style>
      .cls-1 {
        fill: none;
      }

      .cls-2 {
        fill: #efb029;
      }
    </style>
  </defs>
  <g>
    <rect class="cls-1" x="90.5" y="11.8" width="7.21" height="2.16"/>
    <rect class="cls-1" x="50.91" y="9.37" width="7.21" height="4.59"/>
    <path class="cls-2" d="M56.63,17.48h5.72V5.86h-15.66v11.62h5.72v1.74h-6.72v3.51h17.66v-3.51h-6.72v-1.74ZM50.91,13.96v-4.59h7.21v4.59h-7.21Z"/>
    <polygon class="cls-2" points="82.15 11.82 70.51 11.82 70.51 9.37 81.95 9.37 81.95 5.86 66.28 5.86 66.28 15.33 82.15 15.33 82.15 11.82"/>
    <polygon class="cls-2" points="65.28 20.21 72 20.21 72 23.36 76.23 23.36 76.23 20.21 82.95 20.21 82.95 16.7 65.28 16.7 65.28 20.21"/>
    <path class="cls-2" d="M96.22,17.48h5.72V5.86h-4.23v2.43h-7.21v-2.43h-4.23v11.62h5.72v1.74h-6.72v3.51h17.66v-3.51h-6.72v-1.74ZM90.5,13.96v-2.16h7.21v2.16h-7.21Z"/>
    <polygon class="cls-2" points="114.6 19.21 114.6 12.8 110.37 12.8 110.37 19.21 104.88 19.21 104.88 22.72 122.54 22.72 122.54 19.21 114.6 19.21"/>
    <polygon class="cls-2" points="117.32 17.48 121.54 17.48 121.54 5.86 105.88 5.86 105.88 9.37 117.32 9.37 117.32 17.48"/>
  </g>
  <g>
    <polygon class="cls-2" points="0 27.33 3.15 26.9 3.15 4.74 0 4.38 0 27.33"/>
    <polygon class="cls-2" points="5.15 29.86 8.44 29.42 8.44 2.22 5.15 1.84 5.15 29.86"/>
    <path class="cls-2" d="M14.23,5.16c1.45.16,2.25.25,3.57.4l3.48-3.77c-4.13-.68-6.47-1.07-10.84-1.79v13.54l3.79-4.11v-4.27Z"/>
    <path class="cls-2" d="M18.27,10.21c-1.15-.06-1.9-.11-2.82-.16l-4.12,4.46c4.05,0,6.39.01,10.72.02V2.9l-3.79,4.11v3.21Z"/>
    <path class="cls-2" d="M35.43,7.54v-3.41c-4.65-.77-6.98-1.15-11.63-1.92v12.34c4.65.01,6.98.02,11.63.03v-3.41c-3.13-.17-4.7-.26-7.83-.43v-4.07c3.13.35,4.7.53,7.83.88Z"/>
    <path class="cls-2" d="M18.27,19.57c-1.62.1-2.42.14-4.04.24v-3.24c-1.52.03-2.28.05-3.79.08v14.51c4.65-.86,6.98-1.29,11.63-2.15v-12.62c-1.52.03-2.28.05-3.79.08v3.09ZM18.27,25.41c-1.62.21-2.42.32-4.04.53v-1.59c1.62-.18,2.42-.27,4.04-.46v1.52Z"/>
    <path class="cls-2" d="M23.8,20.39c3.13-.23,4.7-.35,7.83-.59v7.45c1.52-.28,2.28-.42,3.79-.7v-10.44c-4.65.1-6.98.15-11.63.25v4.02Z"/>
    <path class="cls-2" d="M23.8,28.7c1.52-.28,2.28-.42,3.79-.7v-3.82c-1.52.2-2.28.3-3.79.5v4.02Z"/>
  </g>
  <g>
    <path class="cls-2" d="M60.33,32.09h-.73l-1.36-3.14v3.14h-1v-4.96h1l1.72,3.97,1.72-3.97h1v4.96h-1v-3.14l-1.36,3.14Z"/>
    <path class="cls-2" d="M63.32,29.6c0-.39.07-.75.2-1.07.13-.32.32-.6.56-.82s.52-.4.85-.53c.33-.12.68-.19,1.06-.19s.74.06,1.06.19c.33.12.61.3.85.53s.42.5.55.82c.13.32.2.68.2,1.07s-.07.75-.2,1.08c-.13.32-.32.6-.55.83s-.52.41-.85.53c-.33.12-.68.19-1.06.19s-.73-.06-1.06-.19c-.33-.12-.61-.3-.85-.53s-.43-.5-.56-.83c-.13-.32-.2-.68-.2-1.08ZM64.31,29.6c0,.28.04.53.13.76.09.22.21.42.36.57.15.16.33.28.53.36.2.08.42.13.65.13s.45-.04.65-.13c.2-.08.38-.2.53-.36.15-.16.27-.35.36-.57.09-.22.13-.48.13-.76s-.04-.53-.13-.75c-.09-.22-.21-.41-.36-.57-.15-.16-.33-.28-.53-.36-.2-.08-.42-.13-.65-.13s-.45.04-.65.13c-.2.08-.38.2-.53.36-.15.16-.27.35-.36.57-.09.22-.13.47-.13.75Z"/>
    <path class="cls-2" d="M69.43,27.12h2.25c.32,0,.62.06.89.19.27.13.5.3.69.52.19.22.34.48.45.79.11.3.16.63.16.98s-.05.69-.16,1c-.11.3-.27.57-.48.79-.21.22-.46.39-.76.52-.3.12-.64.19-1.02.19h-2.01v-4.96ZM70.43,31.32h.93c.25,0,.47-.04.65-.13.19-.09.34-.21.47-.36.13-.15.22-.34.29-.55.07-.21.1-.44.1-.7s-.04-.48-.11-.68c-.07-.21-.18-.38-.32-.53-.14-.15-.31-.26-.51-.35-.2-.08-.43-.12-.68-.12h-.83v3.42Z"/>
    <path class="cls-2" d="M76.81,32.21c-.3,0-.59-.05-.85-.15s-.49-.23-.68-.41c-.19-.17-.35-.38-.46-.63s-.17-.52-.17-.82v-3.08h1v3.02c0,.17.03.34.08.49.05.15.12.29.22.4.1.11.22.2.36.27.15.07.31.1.5.1s.36-.03.5-.1c.15-.07.27-.16.37-.27.1-.11.17-.25.22-.4s.08-.32.08-.49v-3.02h1v3.08c0,.3-.06.58-.17.82s-.26.46-.46.63c-.2.17-.42.31-.69.41-.26.1-.55.15-.85.15Z"/>
    <path class="cls-2" d="M81.43,27.12h2.66c.21,0,.41.03.6.09.18.06.35.15.49.27.14.12.25.27.32.45.08.18.12.4.12.65,0,.35-.07.63-.22.83-.15.2-.35.35-.62.45l1.1,2.23h-1.03l-.98-1.98-1.44.34v1.64h-1v-4.96ZM84.63,28.58c0-.22-.07-.39-.2-.51-.13-.12-.3-.18-.51-.18h-1.49v1.72l1.38-.28c.26-.05.47-.13.61-.26.14-.12.21-.29.21-.49Z"/>
    <path class="cls-2" d="M90.11,29.17v.77h-2.6v1.39h2.79v.76h-3.78v-4.96h3.72v.77h-2.72v1.27h2.6Z"/>
    <path class="cls-2" d="M91.08,27.12h2.66c.21,0,.41.03.6.09.18.06.35.15.49.27.14.12.25.27.32.45s.12.4.12.65-.04.45-.11.61c-.07.17-.17.3-.3.41s-.29.2-.47.26c-.18.07-.39.12-.62.17l-1.69.4v1.64h-1v-4.96ZM94.28,28.58c0-.22-.07-.39-.2-.51-.13-.12-.3-.18-.51-.18h-1.49v1.72l1.38-.28c.26-.05.47-.13.61-.26.14-.12.21-.29.21-.49Z"/>
    <path class="cls-2" d="M95.96,29.6c0-.39.07-.75.2-1.07.13-.32.32-.6.56-.82s.52-.4.85-.53c.33-.12.68-.19,1.06-.19s.74.06,1.06.19c.33.12.61.3.85.53.24.23.42.5.55.82.13.32.2.68.2,1.07s-.07.75-.2,1.08c-.13.32-.32.6-.55.83-.24.23-.52.41-.85.53-.33.12-.68.19-1.06.19s-.73-.06-1.06-.19c-.33-.12-.61-.3-.85-.53s-.43-.5-.56-.83c-.13-.32-.2-.68-.2-1.08ZM96.96,29.6c0,.28.04.53.13.76s.21.42.36.57c.15.16.33.28.53.36.2.08.42.13.65.13s.45-.04.65-.13c.2-.08.38-.2.53-.36.15-.16.27-.35.36-.57s.13-.48.13-.76-.04-.53-.13-.75-.2-.41-.36-.57c-.15-.16-.33-.28-.53-.36-.2-.08-.42-.13-.65-.13s-.45.04-.65.13c-.2.08-.38.2-.53.36s-.27.35-.36.57c-.09.22-.13.47-.13.75Z"/>
    <path class="cls-2" d="M102.08,27.12h2.66c.21,0,.41.03.6.09.19.06.35.15.49.27s.25.27.32.45c.08.18.12.4.12.65,0,.35-.07.63-.22.83-.15.2-.35.35-.62.45l1.1,2.23h-1.03l-.98-1.98-1.44.34v1.64h-1v-4.96ZM105.28,28.58c0-.22-.07-.39-.2-.51-.13-.12-.3-.18-.51-.18h-1.49v1.72l1.38-.28c.27-.05.47-.13.61-.26.14-.12.21-.29.21-.49Z"/>
    <path class="cls-2" d="M109.56,27.89v4.19h-1v-4.19h-1.66v-.77h4.31v.77h-1.66Z"/>
  </g>
</svg>